<?xml version="1.0" encoding="utf-8"?>
<!-- Generator: Adobe Illustrator 14.0.0, SVG Export Plug-In . SVG Version: 6.00 Build 43363)  -->
<!DOCTYPE svg PUBLIC "-//W3C//DTD SVG 1.1//EN" "http://www.w3.org/Graphics/SVG/1.1/DTD/svg11.dtd">
<svg version="1.1" xmlns="http://www.w3.org/2000/svg" xmlns:xlink="http://www.w3.org/1999/xlink" x="0px" y="0px"
	 width="305.304px" height="138.208px" viewBox="0 0 305.304 138.208" enable-background="new 0 0 305.304 138.208"
	 xml:space="preserve">
<g id="Horizontal_Bars" enable-background="new    ">
	<g id="Shape_1_copy">
		<g>
			<rect x="0.679" y="135.436" fill-rule="evenodd" clip-rule="evenodd" fill="#E5A330" width="303.655" height="2.654"/>
		</g>
	</g>
	<g id="Shape_1_copy_2_">
		<g>
			<rect x="0.459" y="81.847" fill-rule="evenodd" clip-rule="evenodd" fill="#E5A330" width="303.656" height="2.654"/>
		</g>
	</g>
</g>
<g id="A-M_SYSTEMS">
	<g>
		<path fill="#2B4B72" d="M39.018,121.052h-8.473l-1.177,3.986h-7.62l9.077-24.151h8.14l9.076,24.151h-7.815L39.018,121.052z
			 M37.47,115.83l-2.666-8.683l-2.638,8.683H37.47z"/>
		<path fill="#2B4B72" d="M48.684,113.639h9.753v5.189h-9.753V113.639z"/>
		<path fill="#2B4B72" d="M61.566,100.887h9.815l3.785,14.695l3.758-14.695h9.809v24.151h-6.112V106.62l-4.709,18.418h-5.532
			l-4.701-18.418v18.418h-6.112V100.887z"/>
		<path fill="#2B4B72" d="M103.445,117.048l7.101-0.444c0.153,1.153,0.467,2.031,0.938,2.636c0.77,0.978,1.868,1.467,3.295,1.467
			c1.065,0,1.887-0.249,2.463-0.751c0.577-0.498,0.865-1.078,0.865-1.736c0-0.627-0.275-1.187-0.824-1.682
			c-0.549-0.493-1.822-0.96-3.822-1.399c-3.272-0.736-5.606-1.714-7.002-2.933c-1.404-1.219-2.108-2.773-2.108-4.662
			c0-1.241,0.36-2.414,1.079-3.517c0.72-1.105,1.801-1.971,3.246-2.603c1.444-0.632,3.424-0.948,5.938-0.948
			c3.086,0,5.439,0.575,7.06,1.721c1.62,1.149,2.583,2.975,2.892,5.479l-7.035,0.412c-0.187-1.088-0.579-1.879-1.178-2.373
			c-0.598-0.494-1.425-0.741-2.479-0.741c-0.869,0-1.522,0.185-1.961,0.551c-0.439,0.369-0.66,0.816-0.66,1.344
			c0,0.384,0.183,0.73,0.544,1.037c0.352,0.319,1.187,0.616,2.505,0.891c3.262,0.703,5.599,1.414,7.01,2.132
			c1.412,0.722,2.438,1.613,3.081,2.679s0.963,2.256,0.963,3.574c0,1.549-0.428,2.978-1.284,4.283
			c-0.857,1.308-2.055,2.3-3.592,2.974c-1.538,0.678-3.476,1.015-5.815,1.015c-4.107,0-6.952-0.792-8.533-2.373
			C104.548,121.496,103.654,119.486,103.445,117.048z"/>
		<path fill="#2B4B72" d="M126.673,100.887h8.29l4.865,8.148l4.876-8.148h8.245l-9.39,14.037v10.114h-7.479v-10.114L126.673,100.887
			z"/>
		<path fill="#2B4B72" d="M152.604,117.048l7.101-0.444c0.154,1.153,0.467,2.031,0.939,2.636c0.769,0.978,1.867,1.467,3.294,1.467
			c1.065,0,1.888-0.249,2.462-0.751c0.579-0.498,0.866-1.078,0.866-1.736c0-0.627-0.274-1.187-0.824-1.682
			c-0.548-0.493-1.822-0.96-3.821-1.399c-3.272-0.736-5.607-1.714-7.002-2.933c-1.405-1.219-2.108-2.773-2.108-4.662
			c0-1.241,0.359-2.414,1.079-3.517c0.718-1.105,1.8-1.971,3.244-2.603s3.425-0.948,5.94-0.948c3.086,0,5.438,0.575,7.06,1.721
			c1.618,1.149,2.583,2.975,2.891,5.479l-7.035,0.412c-0.186-1.088-0.579-1.879-1.178-2.373s-1.425-0.741-2.479-0.741
			c-0.868,0-1.521,0.185-1.961,0.551c-0.439,0.369-0.659,0.816-0.659,1.344c0,0.384,0.182,0.73,0.544,1.037
			c0.351,0.319,1.187,0.616,2.504,0.891c3.262,0.703,5.598,1.414,7.012,2.132c1.409,0.722,2.438,1.613,3.078,2.679
			c0.645,1.065,0.965,2.256,0.965,3.574c0,1.549-0.429,2.978-1.285,4.283c-0.856,1.308-2.054,2.3-3.592,2.974
			c-1.537,0.678-3.476,1.015-5.815,1.015c-4.107,0-6.952-0.792-8.533-2.373C153.708,121.496,152.813,119.486,152.604,117.048z"/>
		<path fill="#2B4B72" d="M176.574,100.887h22.686v5.963h-7.61v18.188h-7.464v-18.188h-7.611V100.887z"/>
		<path fill="#2B4B72" d="M202.62,100.887h20v5.157h-12.521v3.839h11.614v4.925h-11.614v4.762h12.883v5.469H202.62V100.887z"/>
		<path fill="#2B4B72" d="M226.919,100.887h9.814l3.786,14.695l3.757-14.695h9.809v24.151h-6.111V106.62l-4.71,18.418h-5.531
			l-4.701-18.418v18.418h-6.112V100.887z"/>
		<path fill="#2B4B72" d="M257.545,117.048l7.101-0.444c0.153,1.153,0.467,2.031,0.939,2.636c0.769,0.978,1.866,1.467,3.295,1.467
			c1.065,0,1.887-0.249,2.461-0.751c0.579-0.498,0.866-1.078,0.866-1.736c0-0.627-0.274-1.187-0.824-1.682
			c-0.549-0.493-1.822-0.96-3.821-1.399c-3.273-0.736-5.606-1.714-7.002-2.933c-1.406-1.219-2.108-2.773-2.108-4.662
			c0-1.241,0.358-2.414,1.08-3.517c0.718-1.105,1.799-1.971,3.243-2.603s3.425-0.948,5.94-0.948c3.086,0,5.438,0.575,7.06,1.721
			c1.619,1.149,2.583,2.975,2.891,5.479l-7.034,0.412c-0.187-1.088-0.581-1.879-1.18-2.373s-1.424-0.741-2.479-0.741
			c-0.867,0-1.521,0.185-1.96,0.551c-0.439,0.369-0.659,0.816-0.659,1.344c0,0.384,0.181,0.73,0.544,1.037
			c0.352,0.319,1.187,0.616,2.505,0.891c3.262,0.703,5.597,1.414,7.01,2.132c1.409,0.722,2.438,1.613,3.079,2.679
			c0.644,1.065,0.965,2.256,0.965,3.574c0,1.549-0.429,2.978-1.285,4.283c-0.856,1.308-2.054,2.3-3.592,2.974
			c-1.537,0.678-3.476,1.015-5.815,1.015c-4.107,0-6.952-0.792-8.533-2.373C258.65,121.496,257.754,119.486,257.545,117.048z"/>
	</g>
</g>
<g id="TM">
	<g>
		<path fill="#2B4B72" d="M281.847,103.358v-8.027h-3.186v-1.634h8.53v1.634h-3.178v8.027H281.847z"/>
		<path fill="#2B4B72" d="M288.561,103.358v-9.661h3.244l1.947,6.589l1.926-6.589h3.251v9.661h-2.014v-7.604l-2.131,7.604h-2.087
			l-2.123-7.604v7.604H288.561z"/>
	</g>
</g>
<g id="Mountain">
	<g id="XMLID_3_">
		<g>
			<path fill="#2B4B72" d="M287.354,70.708c-0.15,0-0.301,0-0.45,0c-3.937-6.092-13.684-6.354-17.694-12.39
				c-1.181-0.525-2.456-0.862-3.749-1.144c-0.075-0.056-0.15-0.112-0.225-0.168c-0.112,0.019-0.226,0.037-0.338,0.037
				c-1.743-0.375-3.486-0.712-4.985-1.368c-2.925-1.293-4.817-4.405-7.329-6.073c2.549,1.612,4.93,3.43,6.897,5.624
				c4.012,0.112,6.167,2.099,9.729,2.662C273.352,64.073,283.493,64.242,287.354,70.708z"/>
			<path fill="#2B4B72" d="M286.904,70.708c-89.578,0-179.156,0-268.734,0c0.075-0.15,0.187-0.281,0.281-0.412
				c6.729-4.892,17.751-5.474,24.649-10.197c-6.055,5.305-17.226,5.473-23.899,10.178c89.09,0,178.181,0,267.272,0
				c-6.354-5.023-14.582-8.172-21.012-13.102c1.293,0.281,2.568,0.619,3.749,1.144C273.22,64.354,282.967,64.617,286.904,70.708z"/>
			<path fill="#2B4B72" d="M18.169,70.708c89.578,0,179.156,0,268.734,0c-88.791,1.031-179.494,0.15-269.016,0.45
				C17.982,71.009,18.057,70.858,18.169,70.708z"/>
			<path fill="#2B4B72" d="M286.472,70.277c-89.091,0-178.182,0-267.272,0c6.673-4.705,17.844-4.873,23.899-10.178
				c0.15,0,0.3,0,0.45,0c10.684-1.706,18.65-7.873,29.541-10.609c0.019,0,0.056,0,0.094,0c0.15,1.631-1.781,1.144-1.312,3.093
				c0.15,0,0.3,0,0.431,0c0.019,0,0.056,0,0.075,0c9.653-0.262,14.17-8.979,21.237-13.252c0.262-0.131,0.543-0.225,0.824-0.319
				c0.057,2.062-1.968,2.062-2.212,3.824c1.462,3.018,4.986-0.019,6.636-0.881c3.749-6.673,8.435-12.409,12.277-18.988
				c0.281-0.318,0.6-0.637,0.938-0.918c0.975,0.075,0.899,1.2,1.817,1.331c3.975-2.381,8.061-4.649,11.06-7.966
				c1.668-0.038,0.112,3.13,1.78,3.093c0.132-0.131,0.263-0.281,0.356-0.45c0.019,0,0.057,0,0.075,0c0-0.037,0-0.075,0-0.112
				c0-0.019,0.019-0.019,0.019-0.019c0.881-1.35,1.144-3.336,2.118-4.611c0.019-0.037,0.056-0.056,0.094-0.075
				c2.137,4.067-2.943,8.435-0.019,11.902c1.312,0.506,1.649-2.118,2.23-0.881c-0.356,4.273,0.675,8.21-2.23,12.39
				c6.654,1.162,5.117-9.616,9.747-11.958c0.262,0.637,0.131,1.237-0.169,1.818c-0.281,0.3-0.487,0.619-0.656,0.975
				c-0.731,0.918-1.631,1.855-1.837,2.961c0.844,2.849,0.244,5.098-0.881,7.085c3.393,2.324,4.555-3.43,7.872-3.974
				c-0.019,0.113-0.037,0.225-0.074,0.337c-2.774,5.905-7.648,9.709-10.46,15.577c0.169-0.019,0.319-0.056,0.487-0.094
				c-0.019,0.038-0.019,0.056-0.037,0.094c0.638-0.038,1.105-0.244,1.537-0.487c0.019-0.019,0.037-0.019,0.056-0.019
				c1.144-0.394,2.175-0.975,3.149-1.687c0.169-0.019,0.356-0.019,0.563-0.019c0.056-0.206,0.131-0.413,0.206-0.6
				c2.53-2.137,4.593-5.174,6.598-8.079c0.02-0.037,0.057-0.094,0.112-0.15c0.507-0.619,0.976-1.274,1.369-1.968
				c0.618-0.881,1.256-1.706,1.893-2.474c0.057-1.087,0.075-2.137-0.431-2.662c3.055-2.081,1.443-6.935,3.974-8.847
				c1.144,1.537,1.031,3.468,0.881,5.754c0.938,1.125,1.968-1.312,3.093,0c0.638,5.211-2.849,6.298-5.305,8.416
				c-1.162,5.173-6.335,6.335-6.186,12.821c-1.574,3.449-4.705,5.342-5.754,9.297c10.44,1.256,9.915-11.359,12.82-18.144
				c2.399,0.431,2.737-1.781,5.323-2.212c1.575,1.762-0.975,3.355,0.881,5.305c2.925-0.019,2.85-3.037,4.424-4.424
				c-0.375-2.118-1.837-3.167-2.212-5.305c1.725,0.225,2.774-1.63,4.424-2.662c-0.131,1.012,0.112,1.668,0.881,1.781
				c4.63-0.712,3.712-7.985,6.636-7.966c1.068-1.106-1.106-1.48-0.881-3.093c0.975-0.656,2.942-0.3,3.542-1.331
				c-0.806-3.336,0.244-5.792,0.319-7.816c0.037-0.056,0.075-0.094,0.131-0.15c-0.056,0-0.094-0.019-0.131-0.019
				c0.019-1.312-0.432-2.437-2.081-3.524c-2.924,1.95-5.548,4.199-7.216,7.367c-0.113,0.112-0.226,0.206-0.338,0.3
				c-0.169-1.968,0.263-3.43,0.731-4.817c0.188-0.225,0.412-0.431,0.618-0.637c-0.112-0.15-0.188-0.318-0.244-0.469
				c0.544-1.687,0.956-3.449,0.263-6.092c0-0.019,0-0.056,0-0.075c4.161,1.162,7.386,2.568,11.49,1.762
				c0.675,0.525,1.406,0.975,2.137,1.443c0.487,0.45,0.975,0.844,1.556,1.087c0.263,0.188,0.507,0.375,0.731,0.581
				c2.53-0.038,4.854,0.656,6.916,1.781c0.319,0.3,0.675,0.6,1.05,0.862c0.807,0.544,1.556,1.012,2.269,1.462
				c2.1,1.781,3.843,3.955,5.248,6.073c6.654-1.762,9.129,2.587,13.271,4.855c0.094,0.038,0.169,0.094,0.263,0.168
				c0.318,0.244,0.638,0.487,0.975,0.712c1.088,0.918,2.324,2.193,3.637,3.111c5.136,3.599,7.91,5.117,11.509,8.848
				c4.687-0.113,7.535,1.612,9.278,4.423c1.574,0.563,3.13,1.144,4.536,1.856c0.019,0.019,0.057,0.037,0.075,0.056
				c0.862,0.562,1.743,1.106,2.643,1.649c0.787,0.619,1.48,1.35,2.043,2.193c5.511,1.425,9.072,4.799,12.39,8.397
				c2.55-0.281,3.355,1.2,5.867,0.937c0.188,0.038,0.375,0.075,0.563,0.131C271.89,62.105,280.119,65.254,286.472,70.277z
				 M180.718,45.048c2.137-2.549-2.287-4.705-3.992-6.186c1.574-0.843-0.413-4.574-2.644-4.423
				C173.839,38.712,177.195,43.099,180.718,45.048z M171.421,39.293c1.274-1.875,1.818-6.073-0.45-7.517
				c-1.031,2.137-1.931,4.274-2.38,6.336c-0.094,0.112-0.169,0.206-0.263,0.3c0.037,0.094,0.094,0.188,0.131,0.281
				c0,0.019,0,0.019,0,0.019c-0.412,2.193-0.3,4.311,0.75,6.335c2.437-0.206,3.655-1.649,4.424-3.542
				C173.165,40.493,171.909,40.287,171.421,39.293z M123.642,31.777c0.188-0.843,1.256-0.806,0.881-2.211
				c-0.562-0.019-0.618-0.563-1.33-0.45C122.592,29.696,122.424,31.777,123.642,31.777z"/>
			<path fill="#2B4B72" d="M265.46,57.175c-0.188-0.056-0.375-0.094-0.563-0.131c0.112,0,0.226-0.019,0.338-0.037
				C265.31,57.063,265.385,57.119,265.46,57.175z"/>
			<path fill="#2B4B72" d="M264.898,57.044c-2.512,0.263-3.317-1.218-5.867-0.937c-3.317-3.599-6.879-6.973-12.39-8.397
				c-0.563-0.843-1.256-1.574-2.043-2.193c0.956,0.581,1.931,1.162,2.924,1.743c1.443,0.862,3.131,1.218,4.556,2.024
				c0.056,0.019,0.093,0.056,0.131,0.094c0.131,0.075,0.263,0.15,0.375,0.225c2.512,1.668,4.404,4.78,7.329,6.073
				C261.412,56.332,263.155,56.669,264.898,57.044z"/>
			<path fill="#FFFFFF" d="M252.583,49.603c-0.112-0.075-0.244-0.15-0.375-0.225c0.075,0.019,0.131,0.056,0.188,0.094
				C252.452,49.509,252.527,49.546,252.583,49.603z"/>
			<path fill="#2B4B72" d="M238.019,41.206c4.536,2.999,9.56,5.286,14.059,8.079c-1.425-0.806-3.112-1.162-4.556-2.024
				c-0.993-0.581-1.968-1.162-2.924-1.743c-0.787-0.656-1.687-1.2-2.643-1.649c-0.019-0.019-0.057-0.038-0.075-0.056
				C240.568,42.986,239.275,42.124,238.019,41.206z"/>
			<path fill="#2B4B72" d="M244.598,45.517c-0.899-0.543-1.78-1.087-2.643-1.649C242.912,44.317,243.811,44.86,244.598,45.517z"/>
			<path fill="#2B4B72" d="M241.88,43.811c-1.406-0.712-2.962-1.293-4.536-1.856c-1.743-2.812-4.592-4.536-9.278-4.423
				c-3.599-3.73-6.373-5.249-11.509-8.848c-1.313-0.918-2.549-2.193-3.637-3.111c1.013,0.731,2.024,1.443,3.019,2.118
				c0.056,0.038,0.112,0.075,0.187,0.131c0.45,0.281,0.882,0.581,1.313,0.862c1.5,0.975,3.523,1.631,4.873,2.643
				c3.225,2.474,4.837,7.423,11.06,6.205c1.237,1.087,2.512,2.118,3.805,3.074c0.206,0.169,0.413,0.319,0.619,0.469
				c0.074,0.056,0.149,0.094,0.225,0.131C239.275,42.124,240.568,42.986,241.88,43.811z"/>
			<path fill="#FFFFFF" d="M238.019,41.206c-0.075-0.038-0.15-0.075-0.225-0.131c-0.206-0.15-0.413-0.3-0.619-0.469
				C237.457,40.812,237.738,41.018,238.019,41.206z"/>
			<path fill="#2B4B72" d="M237.175,40.605c-1.293-0.956-2.567-1.987-3.805-3.074c-6.223,1.218-7.835-3.73-11.06-6.205
				c-1.35-1.012-3.373-1.668-4.873-2.643c-0.431-0.281-0.862-0.581-1.313-0.862c2.024,1.406,4.687,1.949,6.186,3.074
				c2.063,1.556,3.037,4.274,5.305,5.305c1.763,0.806,3.955,0.188,5.755,0.881C234.851,37.663,235.826,39.406,237.175,40.605z"/>
			<path fill="#2B4B72" d="M215.939,27.691c-0.994-0.675-2.006-1.387-3.019-2.118c-0.337-0.281-0.656-0.525-0.975-0.712
				c-2.38-1.743-4.779-3.618-6.879-5.455C208.872,20.943,211.59,24.561,215.939,27.691z"/>
			<path fill="#2B4B72" d="M212.92,25.573c-0.337-0.225-0.656-0.469-0.975-0.712C212.264,25.048,212.583,25.292,212.92,25.573z"/>
			<path fill="#2B4B72" d="M211.946,24.86c-0.094-0.075-0.169-0.131-0.263-0.168c-4.142-2.268-6.616-6.617-13.271-4.855
				c-1.405-2.118-3.148-4.292-5.248-6.073c2.437,1.5,4.311,2.718,5.248,5.623c2.306-0.862,4.012,0.038,6.617,0h0.019l0.019,0.019
				C207.167,21.243,209.566,23.117,211.946,24.86z"/>
			<path fill="#2B4B72" d="M205.03,19.387c-2.605,0.038-4.312-0.862-6.617,0c-0.938-2.905-2.812-4.124-5.248-5.623
				c-1.013-0.881-2.118-1.687-3.318-2.324c-0.787-0.731-1.424-1.519-2.043-1.781c-1.518-0.656-3.411,0.225-5.323-0.45
				c-0.094-0.037-0.188-0.075-0.281-0.131c-0.487-0.394-1.03-0.731-1.556-1.087c-0.862-0.769-1.649-1.631-2.587-1.875
				c-1.556-0.394-3.354,0.244-4.854,0c-1.443-0.244-2.661-0.75-3.992-1.199c2.718,0.431,5.717,0.15,8.416,0.75
				c1.743,0.394,2.942,2.456,4.854,3.093c1.762,0.619,3.431-0.131,4.874,0.45c1.144,0.45,2.024,1.65,3.542,2.662
				c3.056,2.024,6.485,3.074,7.517,7.067C201.075,18.394,203.193,18.638,205.03,19.387z"/>
			<path fill="#2B4B72" d="M193.165,13.764c-0.713-0.45-1.462-0.918-2.269-1.462c-0.375-0.262-0.73-0.562-1.05-0.862
				C191.046,12.077,192.152,12.883,193.165,13.764z"/>
			<path fill="#2B4B72" d="M187.803,9.659c0.619,0.262,1.256,1.049,2.043,1.781c-2.062-1.125-4.386-1.818-6.916-1.781
				c-0.225-0.207-0.469-0.394-0.731-0.581c0.094,0.056,0.188,0.094,0.281,0.131C184.392,9.884,186.286,9.003,187.803,9.659z"/>
			<path fill="#2B4B72" d="M176.726,38.862c1.705,1.481,6.129,3.636,3.992,6.186c-3.523-1.949-6.879-6.335-6.636-10.609
				C176.313,34.289,178.3,38.019,176.726,38.862c0.881-1.218-0.975-2.474-1.313-3.992c-0.45,0-0.899,0-1.331,0
				c0.15,2.062,0.938,3.486,2.212,4.423C176.482,39.144,176.632,39.012,176.726,38.862z M180.718,44.617
				c0.656-2.118-1.912-4.479-4.424-4.874C176.988,42.143,178.619,43.604,180.718,44.617z"/>
			<path fill="#E5A330" d="M176.294,39.743c2.512,0.394,5.08,2.755,4.424,4.874C178.619,43.604,176.988,42.143,176.294,39.743z
				 M180.718,44.167c-0.581-1.649-2.53-4.236-3.992-3.542C178.038,41.824,178.712,43.661,180.718,44.167z"/>
			<path fill="#2B4B72" d="M180.643,7.991c0.525,0.356,1.068,0.694,1.556,1.087C181.618,8.834,181.13,8.44,180.643,7.991z"/>
			<path fill="#2B4B72" d="M178.056,6.116c0.938,0.244,1.725,1.106,2.587,1.875c-0.73-0.469-1.462-0.918-2.137-1.443
				c-4.104,0.806-7.329-0.6-11.49-1.762c0-0.15,0-0.3-0.019-0.45c0.712,0.281,1.443,0.468,2.212,0.581
				c1.331,0.45,2.549,0.956,3.992,1.199C174.702,6.36,176.5,5.723,178.056,6.116z"/>
			<path fill="#E5A330" d="M176.726,40.625c1.462-0.694,3.411,1.893,3.992,3.542C178.712,43.661,178.038,41.824,176.726,40.625z"/>
			<path fill="#E5A330" d="M175.414,34.87c0.338,1.518,2.193,2.774,1.313,3.992c-0.094,0.15-0.244,0.281-0.432,0.431
				c-1.274-0.937-2.062-2.362-2.212-4.423C174.514,34.87,174.963,34.87,175.414,34.87z M176.294,38.862
				c0.619-0.956-0.637-2.98-1.78-3.542C174.777,36.838,175.358,38.019,176.294,38.862z"/>
			<path fill="#E5A330" d="M174.514,35.32c1.144,0.562,2.399,2.586,1.78,3.542C175.358,38.019,174.777,36.838,174.514,35.32z"/>
			<path fill="#2B4B72" d="M175.414,12.752c-0.056,0.056-0.094,0.094-0.131,0.15c0-0.056,0-0.113,0-0.169
				C175.32,12.733,175.358,12.752,175.414,12.752z"/>
			<path fill="#2B4B72" d="M173.202,9.209c1.649,1.087,2.1,2.212,2.081,3.524c-1.594-0.3-0.169-3.58-2.53-3.074
				c-2.644,1.912-4.424,4.686-6.767,6.917C167.654,13.408,170.278,11.159,173.202,9.209z"/>
			<path fill="#E5A330" d="M175.283,12.733c0,0.056,0,0.113,0,0.169c-1.743,1.949-0.769,4.48-0.769,7.816
				c-0.975,0.637-2.943,0.3-3.543,1.331c-0.225,1.612,1.949,1.987,0.899,3.093c-0.806,0.056-0.937-0.543-1.78-0.45
				c0.638,3.243-1.649,6.317-3.974,7.966c-1.425,0.394-0.619-1.443-1.331-1.762c-1.837,1.462-3.13,2.437-4.873,3.093
				c0.431,1.931,1.537,3.187,2.212,4.874c-1.162,1.631-1.237,4.349-3.975,4.424c-0.918-2.399,1.331-3.993-1.33-5.305
				c-0.356,0.563-1.368,0.937-2.287,1.2c0.581-0.506,1.05-1.331,1.837-1.649c3.299,0.806,1.687,3.13,2.212,5.304
				c2.1-0.112,1.743-2.68,3.111-3.542c-0.375-2.118-1.837-3.167-2.212-5.305c1.2-1.855,3.655-0.712,4.424-3.542
				c1.125,0.056,1.706,0.656,1.762,1.781c2.624-1.237,4.555-4.461,3.993-7.535c0.655-0.506,1.105-0.506,1.762,0
				c1.012-0.469-1.274-1.331-0.881-2.643c1.012-0.6,1.462-1.781,3.542-1.331c-1.162-5.342,1.481-6.879-0.449-10.628
				c-4.199,1.424-5.305,5.904-8.848,7.966c-1.387-2.568,0.281-5.511,1.762-6.635c-1.368-2.099,0.206-4.63,0-7.085
				c0.15,0,0.3,0,0.45,0c0.019,0.15,0.019,0.3,0.019,0.45h-0.019c0,0.019,0.019,0.056,0.019,0.075
				c-0.019,2.1-1.087,4.236-0.263,6.092c-0.131,0.375-0.262,0.731-0.374,1.106c-1.144,1.256-1.987,2.774-1.594,5.567
				c0.3-0.225,0.581-0.469,0.862-0.75c0,0.094,0,0.206,0.019,0.3c0.094-0.206,0.206-0.412,0.319-0.6
				c2.343-2.23,4.123-5.005,6.767-6.917C175.114,9.153,173.689,12.433,175.283,12.733z"/>
			<path fill="#2B4B72" d="M175.283,12.902c-0.075,2.024-1.125,4.48-0.319,7.816c-0.6,1.031-2.567,0.675-3.542,1.331
				c-0.226,1.612,1.949,1.987,0.881,3.093c-2.924-0.019-2.006,7.254-6.636,7.966c-0.769-0.112-1.012-0.769-0.881-1.781
				c-1.649,1.031-2.699,2.887-4.424,2.662c0.375,2.137,1.837,3.187,2.212,5.305c-1.574,1.387-1.499,4.405-4.424,4.424
				c-1.855-1.95,0.694-3.543-0.881-5.305c-2.586,0.431-2.924,2.643-5.323,2.212c-2.905,6.785-2.38,19.4-12.82,18.144
				c1.049-3.955,4.18-5.848,5.754-9.297c-0.149-6.486,5.023-7.648,6.186-12.821c2.456-2.118,5.942-3.205,5.305-8.416
				c-1.125-1.312-2.155,1.125-3.093,0c0.15-2.287,0.263-4.217-0.881-5.754c-2.53,1.912-0.919,6.767-3.974,8.847
				c0.506,0.525,0.487,1.575,0.431,2.662c-0.637,0.769-1.274,1.593-1.893,2.474c0.543-0.993,0.937-2.081,1.05-3.336
				c0.019-0.037,0.019-0.075,0.019-0.131c0.019-0.113,0.019-0.225,0.019-0.356c0.037-0.543,0-1.125-0.075-1.743
				c1.406-1.518,3.599-3.711,2.212-6.635c0.506-1.256,2.081-1.462,2.662-2.662c1.236,2.23,0.524,4.611,1.312,6.635
				c0.3-0.581,0.956-0.825,1.781-0.881c2.736,4.124-1.557,7.929-4.424,9.297c-1.2,5.436-6.785,6.486-6.204,13.721
				c-2.287,2.418-4.499,4.93-5.755,8.397c11.959,0.131,7.366-14.47,13.29-19.025c0.056-0.037,0.149-0.094,0.262-0.131h0.019
				c0.581,0.131,1.013-0.075,1.406-0.431c0.919-0.263,1.931-0.637,2.287-1.2c2.661,1.312,0.412,2.905,1.33,5.305
				c2.737-0.075,2.813-2.793,3.975-4.424c-0.675-1.687-1.781-2.943-2.212-4.874c1.743-0.656,3.036-1.63,4.873-3.093
				c0.712,0.319-0.094,2.156,1.331,1.762c2.324-1.649,4.611-4.724,3.974-7.966c0.844-0.094,0.975,0.506,1.78,0.45
				c1.05-1.106-1.124-1.48-0.899-3.093c0.6-1.031,2.568-0.693,3.543-1.331C174.514,17.382,173.54,14.851,175.283,12.902z"/>
			<path fill="#E5A330" d="M173.633,10.09c1.931,3.749-0.713,5.286,0.449,10.628c-2.08-0.45-2.53,0.731-3.542,1.331
				c-0.394,1.312,1.893,2.174,0.881,2.643c-0.656-0.506-1.106-0.506-1.762,0c0.562,3.074-1.369,6.298-3.993,7.535
				c-0.056-1.125-0.637-1.725-1.762-1.781c-0.769,2.831-3.224,1.687-4.424,3.542c0.375,2.137,1.837,3.187,2.212,5.305
				c-1.368,0.862-1.012,3.43-3.111,3.542c-0.525-2.174,1.087-4.499-2.212-5.304c-0.787,0.318-1.256,1.143-1.837,1.649
				c-0.563,0.188-1.087,0.318-1.406,0.431h-0.019c-0.206-0.057-0.449-0.15-0.712-0.319c-5.136,5.005-2.155,19.082-11.94,18.594
				c1.294-2.98,3.225-5.323,5.305-7.517c-0.6-7.254,5.062-8.21,6.186-13.721c3.768-0.262,6.992-7.441,3.993-9.297
				c-0.45-0.3-1.031-0.45-1.781-0.45c-0.075-1.425,0.375-4.686-1.762-5.754c-0.263,0.918-0.844,1.518-1.762,1.78
				c0.074-0.975-0.375-1.406-1.331-1.331c-3.13,1.725-3.393,6.317-6.636,7.947c-0.131,0.019-0.3,0.019-0.449,0.019
				c-0.02,0.075-0.02,0.131-0.057,0.206c-0.263,0.112-0.524,0.188-0.825,0.244c-0.412,2.193-1.162,2.549,0.356,3.917
				c-0.037,0-0.056,0.038-0.094,0.056c0,0,0,0-0.019,0.019c-2.512,0.112-2.699,4.33-5.117,3.074
				c1.874-3.486,0.712-8.435,3.355-11.359c0.056-0.056,0.131-0.094,0.188-0.131c0,0,0-0.019-0.02-0.019
				c0.15-0.15,0.301-0.3,0.469-0.431c-0.637-0.112-0.506-0.975-0.899-1.331c-6.242,0.975-3.149,11.303-9.278,12.39
				c1.219-2.755,3.861-6.242,1.668-9.316c-0.019-0.206-0.037-0.412-0.056-0.619c1.012-0.918,0.749-3.655-0.731-3.786
				c-0.524,0.656-0.394,1.987-1.78,1.781c-0.544-4.611,2.736-7.535,0.899-11.959c-2.081,0.431-2.399,2.643-3.543,3.993
				c-0.543-0.75-1.293-2.268-2.212-1.331c-3.261,2.793-6.747,5.342-10.628,7.517c-0.843-0.168-0.337-1.706-1.762-1.331
				c-5.36,5.417-8.098,13.458-13.721,18.594c0,0.581,0,1.181,0,1.762c-1.705,0.244-3.336,2.849-5.305,1.331
				c0.3-1.912,2.605-1.818,2.212-4.423c-4.255,0.056-7.272,4.049-10.047,7.254c-0.019,0.019-0.056,0.038-0.075,0.075
				c-0.693,0.637-1.405,1.274-2.137,1.893c-3.28,1.668-6.466,3.411-10.309,4.499c-0.15-1.537,2.25-1.687,0.881-3.093
				c-9.035,0.412-15.764,6.935-24.78,8.847c0-0.45,0.356-0.525,0.45-0.881c15.352-5.736,28.191-14.002,39.382-23.899
				c10.908-5.979,21.462-12.427,31.415-19.906c3.018-2.287,6.729-6.542,9.728-7.535c4.742-1.537,9.316-0.581,14.152-2.643
				c-0.693,5.661-9.223,5.773-7.947,11.94c3.786-1.48,4.686-6.073,11.059-7.085c4.424-0.694,11.978,1.031,11.49-3.974
				c2.793,0,5.792-0.188,7.966,0.431c0.206,2.455-1.368,4.986,0,7.085c-1.48,1.125-3.148,4.067-1.762,6.635
				C168.329,15.995,169.434,11.515,173.633,10.09z M158.15,12.302c2.362-0.806,5.23-3.205,3.975-6.186
				c-0.263,0.131-0.563,0.281-0.862,0.431c-0.02,0.019-0.038,0.019-0.038,0.019c-1.331,0.675-2.887,1.5-3.523,2.643
				C157.232,10.034,157.232,11.046,158.15,12.302z"/>
			<path fill="#E5A330" d="M173.202,41.505c-0.131,0.318-0.262,0.619-0.449,0.899c-0.02-1.912-2.212-1.63-2.212-3.542
				c1.593-0.975,1.144-5.511,0.431-5.754c0.45,2.943-1.293,3.711-2.212,5.305c0.75,2.362,0.994,3.58,0.45,5.754
				c1.986,0.206,1.968-1.556,3.543-1.762c-0.694,1.219-1.8,2.024-3.543,2.212c-0.618-1.949,0.225-3.58-0.75-5.904c0,0,0,0,0-0.019
				c0.019-0.188,0.075-0.375,0.132-0.581c1.236-1.519,2.08-3.43,2.38-5.886c1.743,1.781,1.181,5.267,0,7.066
				C171.365,40.399,172.621,40.605,173.202,41.505z"/>
			<path fill="#2B4B72" d="M172.752,42.405c0.188-0.281,0.318-0.581,0.449-0.899c-0.581-0.9-1.837-1.106-2.23-2.212
				c1.181-1.799,1.743-5.286,0-7.066c-0.3,2.456-1.144,4.367-2.38,5.886c0.449-2.062,1.349-4.199,2.38-6.336
				c2.269,1.443,1.725,5.642,0.45,7.517c0.487,0.994,1.743,1.2,2.212,2.212c-0.769,1.893-1.987,3.336-4.424,3.542
				c-1.05-2.024-1.162-4.143-0.75-6.335c0.975,2.324,0.132,3.955,0.75,5.904C170.953,44.429,172.058,43.624,172.752,42.405z"/>
			<path fill="#E5A330" d="M170.541,38.862c0,1.912,2.192,1.631,2.212,3.542c-1.575,0.207-1.557,1.968-3.543,1.762
				c0.544-2.174,0.3-3.393-0.45-5.754c0.919-1.593,2.662-2.362,2.212-5.305C171.684,33.352,172.133,37.888,170.541,38.862z"/>
			<path fill="#2B4B72" d="M168.591,38.113c-0.057,0.206-0.113,0.394-0.132,0.581c-0.037-0.094-0.094-0.188-0.131-0.281
				C168.422,38.319,168.498,38.225,168.591,38.113z"/>
			<path fill="#FFFFFF" d="M166.998,4.336c0.806,0.15,1.519,0.356,2.212,0.581C168.441,4.804,167.709,4.617,166.998,4.336z"/>
			<path fill="#2B4B72" d="M167.016,4.86c0.693,2.643,0.281,4.405-0.263,6.092C165.929,9.097,166.998,6.96,167.016,4.86z"/>
			<path fill="#2B4B72" d="M167.016,4.786c0,0.019,0,0.056,0,0.075c0-0.019-0.019-0.056-0.019-0.075H167.016z"/>
			<path fill="#2B4B72" d="M166.753,10.952c0.057,0.15,0.132,0.319,0.244,0.469c-0.206,0.206-0.431,0.413-0.618,0.637
				C166.492,11.684,166.623,11.327,166.753,10.952z"/>
			<path fill="#2B4B72" d="M165.986,16.576c-0.113,0.188-0.226,0.394-0.319,0.6c-0.019-0.094-0.019-0.206-0.019-0.3
				C165.76,16.782,165.873,16.688,165.986,16.576z"/>
			<path fill="#2B4B72" d="M166.379,12.058c-0.469,1.387-0.9,2.849-0.731,4.817c-0.281,0.281-0.563,0.525-0.862,0.75
				C164.392,14.833,165.236,13.314,166.379,12.058z"/>
			<path fill="#E5A330" d="M162.125,6.116c1.256,2.98-1.612,5.38-3.975,6.186c-0.918-1.256-0.918-2.268-0.449-3.093
				c-0.318,1.35,0.769,1.313,0.449,2.662c1.969-0.356,5.324-3.655,3.112-5.323C161.562,6.397,161.862,6.248,162.125,6.116z"/>
			<path fill="#2B4B72" d="M161.262,6.547c2.212,1.668-1.144,4.967-3.112,5.323c0.319-1.349-0.768-1.312-0.449-2.662
				c1.05-1.031,2.942-1.181,3.523-2.643C161.224,6.566,161.243,6.566,161.262,6.547z M159.032,11.421
				c0.861-1.068,3.43-2.755,2.211-4.423C160.587,8.534,156.37,9.247,159.032,11.421z"/>
			<path fill="#2B4B72" d="M161.243,6.998c1.219,1.668-1.35,3.355-2.211,4.423C156.37,9.247,160.587,8.534,161.243,6.998z"/>
			<path fill="#E5A330" d="M158.582,3.905c0.487,5.004-7.066,3.28-11.49,3.974c-6.373,1.012-7.272,5.604-11.059,7.085
				c-1.275-6.167,7.254-6.279,7.947-11.94c0.281-0.037,0.524-0.075,0.449-0.45c0.15,0,0.301,0,0.45,0
				c-1.125,5.811-8.153,5.717-8.847,11.94c3.861-2.024,5.491-6.279,10.608-7.066c4.574,0.206,11.622,0.525,11.509-3.542
				C158.3,3.905,158.451,3.905,158.582,3.905z"/>
			<path fill="#2B4B72" d="M158.15,3.905c0.113,4.067-6.935,3.749-11.509,3.542c-5.117,0.787-6.747,5.042-10.608,7.066
				c0.693-6.223,7.722-6.129,8.847-11.94c0.15,0,0.281,0,0.432,0c-1.088,5.698-7.686,5.886-8.848,11.509
				c3.224-2.718,5.154-6.223,10.628-7.085c3.843-0.6,9.69,1.274,10.609-2.662c-0.563-1.05-2.868-0.356-3.093-1.762
				c0.149,0,0.3,0,0.449,0C155.676,3.436,157.344,3.23,158.15,3.905z"/>
			<path fill="#E5A330" d="M161.224,6.566c-0.581,1.462-2.474,1.612-3.523,2.643C158.337,8.066,159.893,7.241,161.224,6.566z"/>
			<path fill="#E5A330" d="M151.515,36.65c2.867-1.368,7.16-5.173,4.424-9.297c2.999,1.855-0.226,9.035-3.993,9.297
				c-1.124,5.511-6.785,6.467-6.186,13.721c-2.08,2.193-4.011,4.536-5.305,7.517c9.785,0.487,6.805-13.589,11.94-18.594
				c0.263,0.169,0.506,0.262,0.712,0.319c-0.112,0.037-0.206,0.094-0.262,0.131c-5.924,4.555-1.331,19.157-13.29,19.025
				c1.256-3.468,3.468-5.979,5.755-8.397C144.73,43.136,150.315,42.086,151.515,36.65z"/>
			<path fill="#2B4B72" d="M154.608,2.574c0.225,1.406,2.53,0.712,3.093,1.762c-0.919,3.936-6.767,2.062-10.609,2.662
				c-5.474,0.862-7.404,4.367-10.628,7.085c1.162-5.623,7.76-5.811,8.848-11.509C148.422,2.574,151.515,2.574,154.608,2.574z"/>
			<path fill="#E5A330" d="M154.158,26.904c0.75,0,1.331,0.15,1.781,0.45c-0.825,0.056-1.481,0.3-1.781,0.881
				c-0.787-2.024-0.075-4.405-1.312-6.635c-0.581,1.2-2.156,1.406-2.662,2.662c1.387,2.924-0.806,5.117-2.212,6.635
				c0.075,0.619,0.112,1.2,0.075,1.743c0-0.581-0.15-1.181-0.525-1.743c0.994-1.387,3.712-3.355,2.212-5.754
				c-0.3,4.105-4.029,4.798-6.186,7.085c-1.181,0.637,1.631,0.975,0.881,2.643c-3.88,4.367-7.047,9.465-10.608,14.17
				c0.881-0.244,1.649-0.563,2.306-0.938c-0.395,0.281-0.75,0.6-1.163,0.862c-0.019,0-0.037,0-0.056,0.019
				c-0.487,0.168-0.975,0.3-1.5,0.394c2.438-5.736,8.623-9.785,9.973-15.483c0.056-0.112,0.112-0.244,0.168-0.356
				c-0.037,0-0.056,0-0.094,0.019c0.038-0.15,0.075-0.3,0.094-0.45c-0.712,0.094-1.33,0.413-1.855,0.825
				c-1.519-1.368-0.769-1.725-0.356-3.917c0.301-0.056,0.563-0.131,0.825-0.244c-0.3,1.218-1.593,2.456-0.825,3.336
				c3.899-2.737,8.511-4.761,8.848-11.059c-4.555,0.431-2.962,7.048-7.517,7.498c3.243-1.63,3.506-6.223,6.636-7.947
				c0.956-0.075,1.405,0.356,1.331,1.331c0.918-0.262,1.499-0.862,1.762-1.78C154.533,22.218,154.083,25.479,154.158,26.904z"/>
			<path fill="#2B4B72" d="M154.533,39.181c-0.394,0.356-0.825,0.562-1.406,0.431C153.446,39.5,153.97,39.369,154.533,39.181z"/>
			<path fill="#E5A330" d="M149.734,25.142c1.5,2.399-1.218,4.368-2.212,5.754c0.375,0.563,0.525,1.162,0.525,1.743
				c0,0.113,0,0.244-0.019,0.356c0,0.056,0,0.094-0.019,0.131c-0.281,2.043-2.287,4.011-3.581,5.286
				c-3.617,3.618-4.555,7.179-7.628,9.259c-0.207,0.113-0.395,0.225-0.582,0.375c-0.037,0.019-0.074,0.038-0.093,0.056
				c-0.656,0.375-1.425,0.694-2.306,0.938c3.562-4.705,6.729-9.803,10.608-14.17c0.75-1.668-2.062-2.006-0.881-2.643
				C145.705,29.94,149.434,29.247,149.734,25.142z"/>
			<path fill="#2B4B72" d="M149.303,22.48c0.787,5.08-4.611,7.779-7.967,10.178c0.244-0.918,1.088-1.256,0.882-2.643
				C147.073,29.997,146.117,24.186,149.303,22.48z"/>
			<path fill="#E5A330" d="M148.029,32.996c0.019-0.113,0.019-0.244,0.019-0.356C148.047,32.771,148.047,32.883,148.029,32.996z"/>
			<path fill="#2B4B72" d="M150.184,22.049c-0.337,6.298-4.948,8.322-8.848,11.059c-0.768-0.881,0.525-2.118,0.825-3.336
				c0.169-0.056,0.356-0.131,0.506-0.225C147.222,29.097,145.629,22.48,150.184,22.049z M141.336,32.658
				c3.355-2.399,8.754-5.099,7.967-10.178c-3.187,1.706-2.23,7.517-7.085,7.535C142.424,31.402,141.581,31.74,141.336,32.658z"/>
			<path fill="#E5A330" d="M148.01,33.126c-0.113,1.256-0.507,2.343-1.05,3.336c-0.469,0.638-0.919,1.293-1.369,1.968
				c-0.056,0.056-0.093,0.113-0.112,0.15c-2.249,2.625-5.285,4.78-6.598,8.079c-0.263,0.225-0.506,0.412-0.769,0.618
				c-0.524,0.057-0.938,0.188-1.312,0.394c3.073-2.081,4.011-5.642,7.628-9.259C145.723,37.138,147.729,35.17,148.01,33.126z"/>
			<path fill="#2B4B72" d="M145.591,38.431c0.45-0.675,0.9-1.331,1.369-1.968C146.567,37.157,146.098,37.813,145.591,38.431z"/>
			<path fill="#2B4B72" d="M143.548,33.108c-0.019,0.15-0.056,0.3-0.094,0.45c-3.317,0.544-4.479,6.298-7.872,3.974
				c1.125-1.987,1.725-4.236,0.881-7.085c0.206-1.106,1.105-2.043,1.837-2.961c-1.499,2.83-0.6,7.048-2.268,10.047
				c2.605,0.731,3.654-2.024,5.548-3.524c0.019-0.019,0.019-0.019,0.019-0.019c0.057,0,0.112,0,0.169,0
				c-0.019-0.019-0.057-0.038-0.075-0.056C142.218,33.521,142.836,33.202,143.548,33.108z"/>
			<path fill="#2B4B72" d="M143.548,33.539c-0.056,0.112-0.112,0.244-0.168,0.356c0.037-0.112,0.056-0.225,0.074-0.337
				C143.493,33.539,143.511,33.539,143.548,33.539z"/>
			<path fill="#2B4B72" d="M145.479,38.581c-2.005,2.905-4.067,5.942-6.598,8.079C140.194,43.361,143.23,41.206,145.479,38.581z"/>
			<path fill="#2B4B72" d="M142.667,29.546c-0.149,0.094-0.337,0.169-0.506,0.225c0.037-0.075,0.037-0.131,0.057-0.206
				C142.368,29.565,142.537,29.565,142.667,29.546z"/>
			<path fill="#2B4B72" d="M141.768,33.989c-0.057,0-0.112,0-0.169,0c0.038-0.019,0.057-0.056,0.094-0.056
				C141.711,33.951,141.75,33.97,141.768,33.989z"/>
			<path fill="#E5A330" d="M140.456,25.142c-0.168,0.131-0.318,0.281-0.469,0.431c-0.206-0.356-0.449-0.731-0.431-1.312
				c-5.979,1.368-2.868,11.884-9.729,12.39c2.118-3.355,2.324-6.466,2.118-9.766c2.193,3.074-0.449,6.561-1.668,9.316
				c6.129-1.087,3.036-11.415,9.278-12.39C139.95,24.167,139.819,25.029,140.456,25.142z"/>
			<path fill="#2B4B72" d="M139.987,25.573c0.02,0,0.02,0.019,0.02,0.019c-0.057,0.038-0.132,0.075-0.188,0.131
				C139.875,25.667,139.931,25.629,139.987,25.573z"/>
			<path fill="#2B4B72" d="M139.987,25.573c-0.056,0.056-0.112,0.094-0.168,0.15c-0.338,0.225-0.638,0.506-0.862,0.787
				c0.3-0.581,0.431-1.181,0.169-1.818c-4.63,2.343-3.093,13.121-9.747,11.958c2.905-4.18,1.874-8.116,2.23-12.39
				c-0.581-1.237-0.919,1.387-2.23,0.881c-2.925-3.468,2.155-7.835,0.019-11.902c0.263-0.188,0.563-0.356,0.881-0.487
				c1.05,5.08-2.53,7.723-0.899,11.94c1.518,0.188,1.33-1.312,2.23-1.762c0.094,1.144,0.206,2.25,0.281,3.336
				c-0.075,0.094-0.169,0.15-0.281,0.207c0.112,0.131,0.225,0.262,0.337,0.412c0.206,3.299,0,6.411-2.118,9.766
				c6.86-0.506,3.749-11.021,9.729-12.39C139.538,24.842,139.781,25.217,139.987,25.573z"/>
			<path fill="#2B4B72" d="M143.38,33.895c-1.35,5.698-7.535,9.747-9.973,15.483c-0.168,0.038-0.318,0.075-0.487,0.094
				C135.732,43.604,140.606,39.8,143.38,33.895z"/>
			<path fill="#E5A330" d="M138.957,26.51c0.225-0.281,0.524-0.562,0.862-0.787c-2.644,2.924-1.481,7.873-3.355,11.359
				c2.418,1.256,2.605-2.961,5.117-3.074c-1.894,1.5-2.942,4.255-5.548,3.524c1.668-2.999,0.769-7.217,2.268-10.047
				C138.544,27.147,138.788,26.829,138.957,26.51z"/>
			<path fill="#2B4B72" d="M138.881,46.66c-0.075,0.187-0.15,0.394-0.206,0.6c-0.206,0-0.394,0-0.563,0.019
				C138.375,47.072,138.619,46.885,138.881,46.66z"/>
			<path fill="#2B4B72" d="M138.957,26.51c-0.169,0.319-0.412,0.638-0.656,0.975C138.469,27.128,138.675,26.81,138.957,26.51z"/>
			<path fill="#2B4B72" d="M136.801,47.672c0.374-0.206,0.787-0.337,1.312-0.394c-0.975,0.712-2.006,1.293-3.149,1.687
				c0.413-0.262,0.769-0.581,1.163-0.862c0.019-0.019,0.056-0.037,0.093-0.056C136.426,47.935,136.614,47.822,136.801,47.672z"/>
			<path fill="#2B4B72" d="M136.801,47.672c-0.188,0.15-0.375,0.263-0.582,0.375C136.407,47.897,136.594,47.785,136.801,47.672z"/>
			<path fill="#2B4B72" d="M134.908,48.984c-0.432,0.244-0.899,0.45-1.537,0.487c0.019-0.038,0.019-0.056,0.037-0.094
				C133.933,49.284,134.42,49.153,134.908,48.984z"/>
			<path fill="#E5A330" d="M131.159,22.48c1.48,0.131,1.743,2.868,0.731,3.786c-0.075-1.087-0.188-2.193-0.281-3.336
				c-0.9,0.45-0.713,1.95-2.23,1.762c-1.631-4.217,1.949-6.86,0.899-11.94c-0.318,0.131-0.618,0.3-0.881,0.487
				c0-0.019-0.019-0.019-0.019-0.038c-0.02,0.038-0.057,0.075-0.075,0.112c-1.313,0.918-2.024,2.456-2.118,4.611
				c0,0-0.019,0-0.019,0.019c-0.019,0.038-0.038,0.075-0.075,0.112c-1.537-0.056-0.394-2.774-1.687-3.093
				c-3.487,2.849-7.348,5.342-11.06,7.966c-1.425,0.394-0.918-1.143-1.78-1.331c-0.169,0.131-0.319,0.281-0.487,0.45
				c-0.113-0.019-0.244-0.019-0.394,0c-0.169,0.319-0.356,0.619-0.544,0.918c-4.742,4.949-7.066,12.315-12.277,16.776
				c0,0.581,0,1.181,0,1.762c-1.8,0.693-3.712,3.224-6.204,1.781c-0.075-2.287,2.38-2.043,2.212-4.424
				c-0.15,0.038-0.301,0.094-0.432,0.15c0-0.056,0-0.094,0-0.15c-0.281,0.15-0.544,0.3-0.824,0.469
				c-3.131,1.312-5.624,3.842-8.342,6.335c2.774-3.205,5.792-7.198,10.047-7.254c0.394,2.605-1.912,2.512-2.212,4.423
				c1.969,1.519,3.6-1.087,5.305-1.331c0-0.581,0-1.181,0-1.762c5.623-5.136,8.36-13.177,13.721-18.594
				c1.425-0.375,0.919,1.162,1.762,1.331c3.881-2.174,7.367-4.724,10.628-7.517c0.919-0.937,1.669,0.582,2.212,1.331
				c1.144-1.35,1.462-3.562,3.543-3.993c1.837,4.424-1.443,7.348-0.899,11.959C130.765,24.467,130.634,23.136,131.159,22.48z"/>
			<path fill="#2B4B72" d="M131.89,26.266c0.019,0.207,0.037,0.413,0.056,0.619c-0.112-0.15-0.225-0.281-0.337-0.412
				C131.721,26.417,131.815,26.36,131.89,26.266z"/>
			<path fill="#2B4B72" d="M129.378,13.202c0,0.019,0.019,0.019,0.019,0.038c-0.038,0.019-0.075,0.038-0.094,0.075
				C129.322,13.277,129.359,13.239,129.378,13.202z"/>
			<path fill="#2B4B72" d="M129.303,13.314c-0.975,1.275-1.237,3.262-2.118,4.611C127.279,15.77,127.991,14.232,129.303,13.314z"/>
			<path fill="#2B4B72" d="M127.167,17.944c0,0.038,0,0.075,0,0.112c-0.019,0-0.057,0-0.075,0
				C127.128,18.019,127.148,17.981,127.167,17.944z"/>
			<path fill="#2B4B72" d="M127.091,18.056c-0.094,0.169-0.225,0.319-0.356,0.45c-1.668,0.038-0.112-3.13-1.78-3.093
				c-2.999,3.317-7.085,5.585-11.06,7.966c-0.918-0.131-0.843-1.256-1.817-1.331c0.168-0.168,0.318-0.318,0.487-0.45
				c0.862,0.188,0.355,1.725,1.78,1.331c3.712-2.624,7.572-5.117,11.06-7.966C126.698,15.282,125.554,18,127.091,18.056z"/>
			<path fill="#E5A330" d="M124.523,29.565c0.375,1.406-0.693,1.368-0.881,2.211c-1.218,0-1.05-2.081-0.449-2.662
				C123.905,29.003,123.961,29.546,124.523,29.565z"/>
			<path fill="#2B4B72" d="M111.684,22.049c0.149-0.019,0.28-0.019,0.394,0c-0.338,0.281-0.656,0.6-0.938,0.918
				C111.328,22.667,111.515,22.368,111.684,22.049z"/>
			<path fill="#2B4B72" d="M98.863,39.743c5.211-4.461,7.535-11.827,12.277-16.776c-3.843,6.579-8.528,12.315-12.277,18.988
				c-1.649,0.862-5.174,3.899-6.636,0.881c0.244-1.762,2.269-1.762,2.212-3.824c0.131-0.056,0.281-0.112,0.432-0.15
				c0.168,2.38-2.287,2.137-2.212,4.424c2.492,1.443,4.404-1.087,6.204-1.781C98.863,40.924,98.863,40.324,98.863,39.743z"/>
			<path fill="#2B4B72" d="M94.439,38.862c0,0.056,0,0.094,0,0.15c-0.281,0.094-0.563,0.188-0.824,0.319
				C93.895,39.162,94.158,39.012,94.439,38.862z"/>
			<path fill="#2B4B72" d="M85.273,45.667c2.718-2.493,5.211-5.023,8.342-6.335c-7.067,4.273-11.584,12.99-21.237,13.252
				c4.499-0.45,7.797-2.512,10.684-4.948c0.244-0.131,0.507-0.244,0.75-0.375c0.45-0.469,0.919-0.975,1.387-1.518
				C85.217,45.704,85.254,45.685,85.273,45.667z"/>
			<path fill="#2B4B72" d="M83.061,47.635c0.731-0.619,1.443-1.256,2.137-1.893c-0.468,0.543-0.937,1.049-1.387,1.518
				C83.568,47.391,83.305,47.503,83.061,47.635z"/>
			<path fill="#E5A330" d="M72.752,52.133c3.843-1.087,7.029-2.831,10.309-4.499c-2.886,2.437-6.185,4.499-10.684,4.948
				c-0.019,0-0.057,0-0.075,0c-0.469-1.949,1.5-1.462,1.331-3.111c-0.15,0-0.3,0-0.45,0.019v-0.019
				c-0.038,0-0.056,0.019-0.094,0.019c-8.66,0.431-16.026,7.779-24.236,8.397c9.016-1.912,15.745-8.435,24.78-8.847
				C75.001,50.446,72.602,50.596,72.752,52.133z"/>
			<path fill="#2B4B72" d="M73.633,49.472c0.168,1.649-1.8,1.162-1.331,3.111c-0.131,0-0.281,0-0.431,0
				c-0.469-1.949,1.462-1.462,1.312-3.093C73.333,49.472,73.483,49.472,73.633,49.472z"/>
			<path fill="#2B4B72" d="M73.183,49.472v0.019c-0.038,0-0.075,0-0.094,0C73.127,49.49,73.146,49.472,73.183,49.472z"/>
			<path fill="#2B4B72" d="M48.854,57.888c8.21-0.619,15.576-7.966,24.236-8.397c-10.89,2.737-18.856,8.903-29.541,10.609
				C44.936,58.994,46.923,58.469,48.854,57.888z"/>
			<path fill="#2B4B72" d="M49.303,57.007c-0.094,0.356-0.45,0.431-0.45,0.881c-1.931,0.581-3.917,1.106-5.305,2.212
				c-0.15,0-0.3,0-0.45,0c-6.898,4.723-17.919,5.305-24.649,10.197c2.718-3.58,8.81-4.33,14.04-5.773
				C38.525,62.855,43.98,58.3,49.303,57.007z"/>
			<path fill="#FFFFFF" d="M17.888,70.708c0.188-0.15,0.375-0.281,0.562-0.412c-0.094,0.131-0.206,0.262-0.281,0.412
				C18.076,70.708,17.982,70.708,17.888,70.708z"/>
		</g>
		<g>
		</g>
	</g>
	<path fill="none" d="M-16.245,62.006"/>
</g>
</svg>
